<svg width="48" height="38" viewBox="0 0 72 56" fill="none" xmlns="http://www.w3.org/2000/svg">
<path d="M58.5168 16.337C59.2608 17.3973 59.4282 18.5971 59.019 19.9364L51.346 45.2154C50.9926 46.4059 50.2811 47.4057 49.2115 48.2148C48.142 49.024 47.0026 49.4286 45.7936 49.4286H20.0402C18.6079 49.4286 17.2268 48.931 15.8968 47.9358C14.5668 46.9406 13.6414 45.7176 13.1206 44.2667C12.6741 43.0204 12.6555 41.8393 13.0648 40.7232C13.0648 40.6488 13.0927 40.3977 13.1485 39.9698C13.2043 39.542 13.2415 39.1979 13.2601 38.9375C13.2787 38.7887 13.2508 38.5887 13.1764 38.3376C13.102 38.0865 13.0741 37.9051 13.0927 37.7935C13.1299 37.5889 13.2043 37.3936 13.3159 37.2076C13.4275 37.0216 13.5809 36.803 13.7763 36.5519C13.9716 36.3008 14.125 36.0822 14.2366 35.8962C14.6645 35.1893 15.083 34.3383 15.4922 33.3432C15.9014 32.348 16.1805 31.497 16.3293 30.7902C16.3851 30.6041 16.3897 30.3251 16.3432 29.9531C16.2967 29.5811 16.2921 29.3207 16.3293 29.1719C16.3851 28.9672 16.5432 28.7068 16.8036 28.3906C17.064 28.0744 17.2221 27.8605 17.2779 27.7489C17.6685 27.0792 18.0592 26.2236 18.4498 25.1819C18.8404 24.1402 19.0729 23.3032 19.1473 22.6707C19.1659 22.5033 19.1427 22.2057 19.0776 21.7779C19.0125 21.3501 19.0171 21.0896 19.0915 20.9966C19.1659 20.7548 19.3706 20.4711 19.7054 20.1456C20.0402 19.8201 20.2448 19.6108 20.3192 19.5178C20.6726 19.0342 21.0679 18.2483 21.505 17.1601C21.9422 16.072 22.1979 15.1745 22.2723 14.4676C22.2909 14.3188 22.263 14.0816 22.1886 13.7561C22.1142 13.4306 22.0956 13.1841 22.1328 13.0167C22.17 12.8679 22.2537 12.7005 22.384 12.5145C22.5142 12.3285 22.6816 12.1146 22.8862 11.8728C23.0908 11.6309 23.2489 11.4356 23.3605 11.2868C23.5093 11.0636 23.6628 10.7799 23.8209 10.4358C23.979 10.0917 24.1185 9.76617 24.2394 9.45925C24.3603 9.15233 24.5091 8.8175 24.6858 8.45478C24.8626 8.09206 25.0439 7.79444 25.2299 7.56192C25.4159 7.32941 25.6624 7.11085 25.9693 6.90623C26.2763 6.70162 26.6111 6.59466 26.9738 6.58536C27.3365 6.57606 27.7783 6.62721 28.2991 6.73882L28.2712 6.82253C28.9781 6.65512 29.4524 6.57141 29.6942 6.57141H50.9275C52.304 6.57141 53.3642 7.09224 54.1083 8.13391C54.8523 9.17558 55.0197 10.3847 54.6105 11.7611L46.9654 37.0402C46.2958 39.2537 45.6308 40.6813 44.9704 41.3231C44.3101 41.9648 43.115 42.2857 41.3851 42.2857H17.1384C16.6362 42.2857 16.2828 42.4252 16.0781 42.7042C15.8735 43.0018 15.8642 43.4018 16.0502 43.904C16.4967 45.2061 17.836 45.8571 20.0681 45.8571H45.8215C46.3609 45.8571 46.8817 45.713 47.384 45.4246C47.8862 45.1363 48.2117 44.7504 48.3605 44.2667L56.7311 16.7277C56.8613 16.3184 56.9078 15.7883 56.8706 15.1373C57.5774 15.4163 58.1261 15.8162 58.5168 16.337ZM28.8293 16.3928C28.7549 16.6347 28.7735 16.8439 28.8851 17.0206C28.9967 17.1973 29.1827 17.2857 29.4431 17.2857H46.4074C46.6492 17.2857 46.8864 17.1973 47.1189 17.0206C47.3514 16.8439 47.5049 16.6347 47.5793 16.3928L48.1652 14.6071C48.2396 14.3653 48.221 14.156 48.1094 13.9793C47.9978 13.8026 47.8118 13.7143 47.5514 13.7143H30.5871C30.3453 13.7143 30.1081 13.8026 29.8756 13.9793C29.6431 14.156 29.4896 14.3653 29.4152 14.6071L28.8293 16.3928ZM26.5134 23.5357C26.439 23.7775 26.4576 23.9868 26.5692 24.1635C26.6808 24.3402 26.8668 24.4286 27.1273 24.4286H44.0915C44.3334 24.4286 44.5705 24.3402 44.803 24.1635C45.0356 23.9868 45.189 23.7775 45.2634 23.5357L45.8494 21.75C45.9238 21.5082 45.9052 21.2989 45.7936 21.1222C45.6819 20.9455 45.4959 20.8571 45.2355 20.8571H28.2712C28.0294 20.8571 27.7922 20.9455 27.5597 21.1222C27.3272 21.2989 27.1738 21.5082 27.0994 21.75L26.5134 23.5357Z" fill="#d5c592"/>
</svg>
