<svg width="72" height="56" viewBox="0 0 72 56" fill="none" xmlns="http://www.w3.org/2000/svg">
<path d="M57 21H29C24.5817 21 21 24.5817 21 29V44C21 48.4183 24.5817 52 29 52H57.6158C59.7015 52 61.6747 52.7196 63.4146 53.3962C64.9246 53.9835 66.4726 54.2896 67.4643 54.1725C67.465 54.1337 67.4617 54.0826 67.4501 54.0202C67.4304 53.9143 67.3908 53.7975 67.332 53.6849L68.2184 53.2219L67.332 53.6849C66.498 52.0883 65.723 49.9449 65.2566 48.1827C65.0669 47.4661 65 46.7429 65 46.0465V29C65 24.5817 61.4183 21 57 21Z" stroke="white" stroke-width="2"/>
<path d="M43 3H15C10.0294 3 6 7.02944 6 12V29.0465C6 29.6804 5.9375 30.3134 5.78189 30.9278C5.32588 32.7284 4.56196 35.0732 3.75857 36.7093C3.36678 37.5072 3.44295 38.5236 4.32948 38.5882C5.58287 38.6796 7.38005 38.1427 8.98995 37.4118C10.698 36.6363 12.5084 36 14.3842 36H43C47.9706 36 52 31.9706 52 27V12C52 7.02944 47.9706 3 43 3Z" fill="white"/>
</svg>
