<svg width="72" height="56" viewBox="0 0 72 56" fill="none" xmlns="http://www.w3.org/2000/svg">
<rect x="51" y="3" width="8" height="52" rx="3" transform="rotate(-15 51 3)" fill="white"/>
<path d="M54.8197 30.4313L48.5055 8.5228C48.3019 7.81631 47.4291 7.55796 46.8432 8.00218C37.1848 15.3252 18.1792 17.2013 4.02997 16.849C3.46492 16.8349 3.08432 17.2934 3.45283 17.7219C6.49452 21.2594 23.8435 28.7315 24.2952 30.0751C24.7523 31.4343 18.0392 34.4661 6.10228 37.6269C5.15485 37.8777 5.09134 39.1789 6.02575 39.4746C28.0161 46.4335 47.0157 37.4331 54.5017 31.464C54.8112 31.2172 54.9293 30.8117 54.8197 30.4313Z" fill="white"/>
</svg>
