<svg width="48" height="38" viewBox="0 0 72 56" fill="none" xmlns="http://www.w3.org/2000/svg">
<path d="M30.1407 40.4084C29.5694 39.9448 29.6774 39.0437 30.3422 38.7284L36.4919 35.8107L42.0774 30.7234L45.0175 24.9294C45.3334 24.307 46.1736 24.1914 46.6458 24.7055L54.7448 33.5236C56.2577 35.1708 57.012 37.3761 56.8248 39.6047L56.2701 46.2087C56.1021 48.2092 54.4773 49.7752 52.4719 49.8695L45.4321 50.2004C43.4695 50.2926 41.5415 49.6593 40.0158 48.4213L30.1407 40.4084Z" fill="#d5c592"/>
<path d="M36.4919 35.8107L42.0774 30.7234L16.0912 4.7372C15.3102 3.95616 14.0438 3.95616 13.2628 4.7372L10.514 7.48604C9.72774 8.27226 9.73371 9.54881 10.5273 10.3276L36.4919 35.8107Z" fill="#d5c592"/>
</svg>
